<svg width="18" height="20" viewBox="0 0 18 20" fill="none"
    xmlns="http://www.w3.org/2000/svg">
    <path fill-rule="evenodd" clip-rule="evenodd" d="M17.25 10.9167C17.25 14.3539 17.25 16.0725 16.3747 17.2773C16.092 17.6664 15.7498 18.0086 15.3607 18.2913C14.1559 19.1667 12.4373 19.1667 9 19.1667C5.56275 19.1667 3.84412 19.1667 2.63932 18.2913C2.25022 18.0086 1.90804 17.6664 1.62534 17.2773C0.75 16.0725 0.75 14.3539 0.75 10.9167V9.08333C0.75 8.3143 0.75 7.6313 0.759803 7.02083L0.824085 7.02084C1.6051 7.0209 2.08084 7.02094 2.49121 6.95594C4.74656 6.59873 6.51539 4.82989 6.87261 2.57454C6.9376 2.16417 6.93757 1.68843 6.9375 0.907418L6.9375 0.843137C7.54797 0.833333 8.23097 0.833333 9 0.833333C12.4373 0.833333 14.1559 0.833333 15.3607 1.70867C15.7498 1.99137 16.092 2.33355 16.3747 2.72265C17.25 3.92745 17.25 5.64608 17.25 9.08333V10.9167ZM9.91667 5.64583C9.53697 5.64583 9.22917 5.95364 9.22917 6.33333C9.22917 6.71303 9.53697 7.02083 9.91667 7.02083H12.6667C13.0464 7.02083 13.3542 6.71303 13.3542 6.33333C13.3542 5.95364 13.0464 5.64583 12.6667 5.64583H9.91667ZM5.33333 9.3125C4.95364 9.3125 4.64583 9.6203 4.64583 10C4.64583 10.3797 4.95364 10.6875 5.33333 10.6875H12.6667C13.0464 10.6875 13.3542 10.3797 13.3542 10C13.3542 9.6203 13.0464 9.3125 12.6667 9.3125H5.33333ZM9.91667 12.9792C9.53697 12.9792 9.22917 13.287 9.22917 13.6667C9.22917 14.0464 9.53697 14.3542 9.91667 14.3542H12.6667C13.0464 14.3542 13.3542 14.0464 13.3542 13.6667C13.3542 13.287 13.0464 12.9792 12.6667 12.9792H9.91667Z" fill="currentColor"/>
    <path d="M2.27611 5.59787C1.99342 5.64264 1.64437 5.64571 0.809892 5.64583C0.896432 4.32618 1.10802 3.43468 1.62534 2.72265C1.90804 2.33355 2.25022 1.99137 2.63932 1.70867C3.35135 1.19135 4.24284 0.979766 5.5625 0.893225C5.56238 1.7277 5.55931 2.07675 5.51454 2.35944C5.25051 4.02644 3.94311 5.33384 2.27611 5.59787Z" fill="currentColor"/>
</svg>
    