<svg width="13" height="17" viewBox="0 0 13 17" fill="none" xmlns="http://www.w3.org/2000/svg">
    <path fill-rule="evenodd" clip-rule="evenodd"
        d="M5.43826 0.850006C4.81832 0.850006 4.22377 1.09628 3.7854 1.53464C3.34703 1.97301 3.10076 2.56756 3.10076 3.18751V3.56406C2.42836 3.62891 1.75799 3.71338 1.09051 3.81736C1.00657 3.82879 0.925755 3.85684 0.85278 3.89987C0.779806 3.94289 0.716139 4.00003 0.6655 4.06794C0.61486 4.13586 0.578264 4.21318 0.557849 4.2954C0.537435 4.37761 0.533612 4.46308 0.546604 4.54679C0.559596 4.6305 0.589141 4.71078 0.633515 4.78295C0.677888 4.85511 0.736199 4.9177 0.805041 4.96707C0.873882 5.01644 0.951872 5.0516 1.03445 5.07048C1.11704 5.08937 1.20256 5.0916 1.28601 5.07706L1.41266 5.05836L2.12751 13.9987C2.17431 14.5845 2.44006 15.1312 2.87182 15.5298C3.30359 15.9285 3.86968 16.15 4.45736 16.15H8.54331C9.131 16.1502 9.6972 15.929 10.1291 15.5304C10.561 15.1319 10.827 14.5853 10.874 13.9995L11.5889 5.05751L11.7155 5.07706C11.881 5.0996 12.0487 5.0563 12.1826 4.95645C12.3165 4.85661 12.4059 4.70821 12.4315 4.54316C12.4571 4.37811 12.417 4.2096 12.3196 4.07387C12.2223 3.93814 12.0756 3.84603 11.911 3.81736C11.2435 3.71347 10.5732 3.629 9.90076 3.56406V3.18751C9.90076 2.56756 9.65449 1.97301 9.21612 1.53464C8.77776 1.09628 8.1832 0.850006 7.56326 0.850006H5.43826ZM6.50076 3.40001C7.21476 3.40001 7.92281 3.42126 8.62576 3.46376V3.18751C8.62576 2.60101 8.14976 2.12501 7.56326 2.12501H5.43826C4.85176 2.12501 4.37576 2.60101 4.37576 3.18751V3.46376C5.07871 3.42126 5.78676 3.40001 6.50076 3.40001ZM5.29376 6.56201C5.287 6.39293 5.21335 6.23347 5.08901 6.11869C4.96467 6.00392 4.79984 5.94324 4.63076 5.95001C4.46169 5.95677 4.30222 6.03042 4.18745 6.15476C4.07268 6.27909 4.012 6.44393 4.01876 6.61301L4.27376 12.988C4.27711 13.0717 4.29692 13.154 4.33205 13.23C4.36718 13.3061 4.41695 13.3745 4.47851 13.4313C4.54008 13.4881 4.61223 13.5323 4.69086 13.5612C4.76949 13.5902 4.85304 13.6034 4.93676 13.6C5.02048 13.5967 5.10272 13.5769 5.17878 13.5417C5.25484 13.5066 5.32324 13.4568 5.38007 13.3953C5.4369 13.3337 5.48105 13.2615 5.50999 13.1829C5.53894 13.1043 5.55211 13.0207 5.54876 12.937L5.29376 6.56201ZM8.98276 6.61301C8.98611 6.52929 8.97294 6.44573 8.94399 6.3671C8.91505 6.28848 8.8709 6.21632 8.81407 6.15476C8.75724 6.09319 8.68884 6.04342 8.61278 6.00829C8.53672 5.97316 8.45448 5.95335 8.37076 5.95001C8.20169 5.94324 8.03685 6.00392 7.91251 6.11869C7.78818 6.23347 7.71452 6.39293 7.70776 6.56201L7.45276 12.937C7.44941 13.0207 7.46259 13.1043 7.49153 13.1829C7.52047 13.2615 7.56462 13.3337 7.62145 13.3953C7.67828 13.4568 7.74668 13.5066 7.82274 13.5417C7.89881 13.5769 7.98104 13.5967 8.06476 13.6C8.14848 13.6034 8.23204 13.5902 8.31066 13.5612C8.38929 13.5323 8.46145 13.4881 8.52301 13.4313C8.58458 13.3745 8.63434 13.3061 8.66948 13.23C8.70461 13.154 8.72441 13.0717 8.72776 12.988L8.98276 6.61301Z"
        fill="currentColor" />
</svg>