<svg width="36" height="32" viewBox="0 0 36 32" fill="none"
    xmlns="http://www.w3.org/2000/svg">
    <path d="M26.5582 0C28.9422 0 31.2356 0.942222 32.9227 2.63289C34.6116 4.32 35.5556 6.59556 35.5556 8.97778V23.0222C35.5556 27.9822 31.52 32 26.5582 32H8.99555C4.03378 32 0 27.9822 0 23.0222V8.97778C0 4.01778 4.016 0 8.99555 0H26.5582ZM28.5689 9.24444C28.1956 9.22489 27.84 9.35111 27.5716 9.6L19.5556 16C18.5244 16.8551 17.0471 16.8551 16 16L8 9.6C7.44711 9.19111 6.68267 9.24444 6.22222 9.72444C5.74222 10.2044 5.68889 10.9689 6.096 11.5022L6.32889 11.7333L14.4178 18.0444C15.4133 18.8267 16.6204 19.2533 17.8844 19.2533C19.1449 19.2533 20.3733 18.8267 21.3671 18.0444L29.3867 11.6267L29.5289 11.4844C29.9538 10.9689 29.9538 10.2222 29.5093 9.70667C29.2622 9.44178 28.9227 9.28 28.5689 9.24444Z" fill="currentColor"/>
</svg>
