<svg width="32" height="32" viewBox="0 0 32 32" fill="none"
    xmlns="http://www.w3.org/2000/svg">
    <path fill-rule="evenodd" clip-rule="evenodd" d="M16.0743 2.17169e-07C19.0881 -1.31832e-05 21.4505 -2.38419e-05 23.3248 0.203041C25.2374 0.410267 26.7872 0.840737 28.1104 1.8021C28.9114 2.3841 29.6159 3.08856 30.1979 3.88962C31.1593 5.21281 31.5897 6.76257 31.797 8.67524C32 10.5495 32 12.9119 32 15.9256V16.0743C32 19.088 32 21.4505 31.797 23.3248C31.5897 25.2374 31.1593 26.7872 30.1979 28.1104C29.6159 28.9114 28.9114 29.6159 28.1104 30.1979C26.7872 31.1593 25.2374 31.5897 23.3248 31.797C21.4505 32 19.0881 32 16.0744 32H15.9257C12.912 32 10.5495 32 8.67524 31.797C6.76257 31.5897 5.21281 31.1593 3.88962 30.1979C3.08856 29.6159 2.3841 28.9114 1.8021 28.1104C0.840737 26.7872 0.410267 25.2374 0.203041 23.3248C-2.38419e-05 21.4505 -1.31832e-05 19.0881 2.17169e-07 16.0743V15.9257C-1.31832e-05 12.9119 -2.38419e-05 10.5495 0.203041 8.67524C0.410267 6.76257 0.840737 5.21281 1.8021 3.88962C2.3841 3.08856 3.08856 2.3841 3.88962 1.8021C5.21281 0.840737 6.76257 0.410267 8.67524 0.203041C10.5495 -2.38419e-05 12.9119 -1.31832e-05 15.9257 2.17169e-07H16.0743ZM17.2308 7.79487C17.2308 7.11514 16.6797 6.5641 16 6.5641C15.3203 6.5641 14.7692 7.11514 14.7692 7.79487V13.7328L10.7162 9.67976C10.2356 9.19911 9.45628 9.19911 8.97563 9.67976C8.49499 10.1604 8.49499 10.9397 8.97563 11.4203L12.3245 14.7692H7.79487C7.11514 14.7692 6.5641 15.3203 6.5641 16C6.5641 16.6797 7.11514 17.2308 7.79487 17.2308H13.0287L8.97587 21.2836C8.49522 21.7642 8.49522 22.5435 8.97587 23.0241C9.45651 23.5048 10.2358 23.5048 10.7164 23.0241L14.7692 18.9713V24.2051C14.7692 24.8849 15.3203 25.4359 16 25.4359C16.6797 25.4359 17.2308 24.8849 17.2308 24.2051V19.6755L20.5794 23.0241C21.0601 23.5048 21.8394 23.5048 22.32 23.0241C22.8006 22.5435 22.8006 21.7642 22.32 21.2836L18.2672 17.2308H24.2051C24.8849 17.2308 25.4359 16.6797 25.4359 16C25.4359 15.3203 24.8849 14.7692 24.2051 14.7692H18.9713L22.3202 11.4203C22.8009 10.9397 22.8009 10.1604 22.3202 9.67976C21.8396 9.19911 21.0603 9.19911 20.5797 9.67976L17.2308 13.0287V7.79487Z" fill="currentColor"/>
</svg>
    