<svg width="40" height="33" viewBox="0 0 40 33" fill="none"
    xmlns="http://www.w3.org/2000/svg">
    <path d="M6.90702 14.6654V19.2919C6.90702 22.6709 6.90702 24.3605 7.35129 25.7278C8.24919 28.4912 10.4158 30.6578 13.1792 31.5557C14.5466 32 16.2361 32 19.6152 32C22.9942 32 24.6838 32 26.0511 31.5557C28.8145 30.6578 30.9811 28.4912 31.879 25.7278C32.3233 24.3605 32.3233 22.6709 32.3233 19.2919V14.6714M32.3233 14.6714C30.5855 15.3757 28.4385 16.1408 25.8837 17.0532L22.0578 18.4196C20.8488 18.8514 20.2443 19.0673 19.6153 19.0673C18.9864 19.0673 18.3819 18.8514 17.1729 18.4196L13.347 17.0532C5.35787 14.1999 1.36328 12.7733 1.36328 10.2145C1.36328 7.65576 5.35787 6.2291 13.347 3.37578L17.1729 2.00938C18.3819 1.57759 18.9864 1.36169 19.6153 1.36169C20.2443 1.36169 20.8488 1.57759 22.0578 2.00938L25.8837 3.37578C33.8728 6.2291 37.8674 7.65576 37.8674 10.2145C37.8674 11.955 36.0198 13.1732 32.3233 14.6714Z" stroke="currentColor" stroke-width="1.5"/>
    <path d="M16.8913 0.663333L12.7738 2.13397C8.8751 3.52636 5.81095 4.6207 3.73194 5.69614C1.72254 6.73557 0 8.07165 0 10.2144V22.9438C0 23.6958 0.706992 24.2841 1.45898 24.2841C2.21096 24.2841 2.82056 23.6745 2.82056 22.9225V14.2242C2.29723 13.9067 1.81321 13.5602 1.3992 13.1738C0.553589 12.3846 0 11.4291 0 10.2144C0 9.46242 0.706992 8.85282 1.45898 8.85282C1.59243 8.85282 1.71832 8.87201 1.83515 8.9078L1.4591 9.07702L1.74347 10.2145H2.72328C2.72328 10.6305 2.99804 11.2871 4.98323 12.314C6.87866 13.2945 9.76708 14.3294 13.8034 15.771L17.6293 17.1374C18.9274 17.601 19.2752 17.7057 19.6138 17.7057C19.9523 17.7057 20.3001 17.601 21.5982 17.1374L25.552 15.7253C28.0598 14.8297 30.1335 14.0891 31.8103 13.4095C33.6451 12.6658 34.8832 12.0431 35.6508 11.4538C36.3879 10.8879 36.5043 10.5039 36.5043 10.2145H39.2273C39.2273 10.2145 39.2273 10.2145 39.2273 10.2145C39.2273 8.07175 37.5048 6.73557 35.4954 5.69614C33.4164 4.62069 30.3522 3.52636 26.4534 2.13396L22.3361 0.66334C21.3016 0.292918 20.4836 0 19.6137 0C18.7437 0 17.9257 0.292916 16.8913 0.663333Z" fill="currentColor"/>
    <path d="M39.2215 10.429C39.1656 11.4266 38.7214 12.2503 38.0652 12.9399C38.7288 12.2463 39.1665 11.4279 39.2215 10.429Z" fill="currentColor"/>
</svg>
    